<?xml version="1.0" encoding="UTF-8" standalone="no"?>
<!-- Generator: Adobe Illustrator 19.0.0, SVG Export Plug-In . SVG Version: 6.00 Build 0)  -->

<svg
   version="1.1"
   id="Capa_1"
   x="0px"
   y="0px"
   viewBox="0 0 469.44 469.44"
   style="enable-background:new 0 0 469.44 469.44;"
   xml:space="preserve"
   sodipodi:docname="eye-blocked=yellow.svg"
   inkscape:version="1.3.2 (091e20e, 2023-11-25)"
   xmlns:inkscape="http://www.inkscape.org/namespaces/inkscape"
   xmlns:sodipodi="http://sodipodi.sourceforge.net/DTD/sodipodi-0.dtd"
   xmlns="http://www.w3.org/2000/svg"
   xmlns:svg="http://www.w3.org/2000/svg"><defs
   id="defs20" /><sodipodi:namedview
   id="namedview20"
   pagecolor="#ffffff"
   bordercolor="#000000"
   borderopacity="0.25"
   inkscape:showpageshadow="2"
   inkscape:pageopacity="0.0"
   inkscape:pagecheckerboard="0"
   inkscape:deskcolor="#d1d1d1"
   inkscape:zoom="1.842621"
   inkscape:cx="234.72"
   inkscape:cy="234.72"
   inkscape:window-width="1392"
   inkscape:window-height="1212"
   inkscape:window-x="443"
   inkscape:window-y="187"
   inkscape:window-maximized="0"
   inkscape:current-layer="g5" />
<g
   id="g5">
	<g
   id="g4"
   style="fill:#ffff00">
		<g
   id="g3"
   style="fill:#ffff00">
			<path
   d="M231.147,160.373l67.2,67.2l0.32-3.52c0-35.307-28.693-64-64-64L231.147,160.373z"
   id="path1"
   style="fill:#ffff00" />
			<path
   d="M234.667,117.387c58.88,0,106.667,47.787,106.667,106.667c0,13.76-2.773,26.88-7.573,38.933l62.4,62.4     c32.213-26.88,57.6-61.653,73.28-101.333c-37.013-93.653-128-160-234.773-160c-29.867,0-58.453,5.333-85.013,14.933l46.08,45.973     C207.787,120.267,220.907,117.387,234.667,117.387z"
   id="path2"
   style="fill:#ffff00" />
			<path
   d="M21.333,59.253l48.64,48.64l9.707,9.707C44.48,145.12,16.64,181.707,0,224.053c36.907,93.653,128,160,234.667,160     c33.067,0,64.64-6.4,93.547-18.027l9.067,9.067l62.187,62.293l27.2-27.093L48.533,32.053L21.333,59.253z M139.307,177.12     l32.96,32.96c-0.96,4.587-1.6,9.173-1.6,13.973c0,35.307,28.693,64,64,64c4.8,0,9.387-0.64,13.867-1.6l32.96,32.96     c-14.187,7.04-29.973,11.307-46.827,11.307C175.787,330.72,128,282.933,128,224.053C128,207.2,132.267,191.413,139.307,177.12z"
   id="path3"
   style="fill:#ffff00" />
		</g>
	</g>
</g>
<g
   id="g6">
</g>
<g
   id="g7">
</g>
<g
   id="g8">
</g>
<g
   id="g9">
</g>
<g
   id="g10">
</g>
<g
   id="g11">
</g>
<g
   id="g12">
</g>
<g
   id="g13">
</g>
<g
   id="g14">
</g>
<g
   id="g15">
</g>
<g
   id="g16">
</g>
<g
   id="g17">
</g>
<g
   id="g18">
</g>
<g
   id="g19">
</g>
<g
   id="g20">
</g>
</svg>
